<?xml version="1.0" encoding="utf-8"?>
<!-- Generator: Adobe Illustrator 22.0.1, SVG Export Plug-In . SVG Version: 6.00 Build 0)  -->
<svg version="1.1" id="图层_1" xmlns="http://www.w3.org/2000/svg" xmlns:xlink="http://www.w3.org/1999/xlink" x="0px" y="0px"
	 viewBox="0 0 70 70" style="enable-background:new 0 0 70 70;" xml:space="preserve">
<style type="text/css">
	.st0{fill:#5078FE;}
	.st1{enable-background:new    ;}
</style>
<g>
	<path class="st0" d="M35.1,65.3C18.4,65.3,4.8,51.7,4.8,35S18.4,4.7,35.1,4.7c14.2,0,26.6,10,29.6,23.9c0.1,0.5-0.2,1.1-0.8,1.2
		c-0.5,0.1-1.1-0.2-1.2-0.8C60,16.1,48.4,6.7,35.1,6.7C19.5,6.7,6.8,19.4,6.8,35s12.7,28.3,28.3,28.3c0.8,0,1.5,0,2.3-0.1
		c0.6-0.1,1,0.3,1.1,0.9c0.1,0.5-0.3,1-0.9,1.1C36.8,65.3,35.9,65.3,35.1,65.3z"/>
</g>
<g class="st1">
	<path class="st0" d="M14.9,39.9l2-0.3c0.3,1,0.8,1.8,1.4,2.4c0.7,0.6,1.5,0.9,2.5,0.9s1.8-0.4,2.4-1.2S24,40,24,39
		c-0.1-1-0.5-1.8-1.2-2.3c-0.7-0.6-1.8-0.9-3.4-1.2V34c1.5-0.1,2.7-0.6,3.4-1.2c0.7-0.7,1-1.5,0.9-2.6s-0.6-1.8-1.4-2.3
		c-0.9-0.5-1.8-0.5-2.8-0.2c-1,0.4-1.8,1.4-2.4,3.1l-2-0.3c0.4-1.3,1.1-2.4,1.8-3.3c0.8-0.9,1.8-1.4,3.2-1.5c1.3-0.1,2.5,0,3.5,0.5
		s1.7,1.2,2.1,2.2s0.5,2.1,0.2,3.3c-0.3,1.2-1.1,2.2-2.5,3.1c1,0.4,1.8,1.1,2.4,2s0.7,2,0.6,3.5c-0.2,1.4-0.8,2.6-1.9,3.5
		s-2.4,1.3-3.8,1.3s-2.6-0.5-3.7-1.3C15.8,42.7,15.2,41.5,14.9,39.9z"/>
	<path class="st0" d="M29,38.1c0.1-1.1,0.3-2,0.6-2.7c0.3-0.7,0.8-1.7,1.5-2.8l4.5-7.1h2.5l-4.6,7.3c2-0.5,3.6-0.4,4.8,0.2
		c1.2,0.7,2,1.4,2.4,2.3c0.4,0.8,0.6,1.8,0.7,2.8s-0.1,2-0.4,2.9c-0.3,1-0.9,1.8-1.8,2.6c-0.8,0.8-2,1.2-3.5,1.3s-2.8-0.2-3.9-0.8
		s-1.8-1.5-2.2-2.7C29.1,40.3,28.9,39.2,29,38.1z M32.5,41.8c0.7,0.7,1.5,1.1,2.7,1.2c1.1,0.1,2-0.3,2.8-1.1c0.7-0.8,1.1-2,1.1-3.5
		s-0.5-2.6-1.4-3.2c-0.9-0.6-2-0.8-3.1-0.7s-2,0.7-2.5,1.7s-0.7,2-0.7,3C31.4,40.2,31.8,41.1,32.5,41.8z"/>
	<path class="st0" d="M43.1,34c0.1-2,0.3-3.5,0.8-4.6s1.2-2.1,2-2.8c0.9-0.7,2-1.1,3.3-1.1s2.4,0.5,3.4,1.6s1.6,2.4,1.9,4
		c0.3,1.6,0.4,3.5,0.3,5.6c-0.1,2.1-0.5,3.8-1.1,5.1s-1.6,2.3-2.8,2.8c-1.3,0.5-2.5,0.5-3.8-0.2c-1.3-0.6-2.1-1.5-2.7-2.5
		c-0.5-1-0.9-2.1-1.1-3.3C43.1,37.6,43,36,43.1,34z M45.4,33.4c-0.2,2-0.1,3.8,0.2,5.4c0.4,1.6,1,2.7,1.8,3.4s1.7,0.8,2.6,0.4
		c0.9-0.4,1.5-1.2,1.9-2.4s0.6-2.5,0.6-4s-0.1-2.7-0.2-3.9c0-1.3-0.3-2.3-0.9-3.3s-1.3-1.5-2.2-1.5s-1.7,0.4-2.4,1.4
		S45.6,31.4,45.4,33.4z"/>
</g>
<g>
	<path class="st0" d="M46.3,65.3c-0.6,0-1-0.4-1-1v-8.6c0-0.6,0.4-1,1-1s1,0.4,1,1v8.6C47.3,64.9,46.9,65.3,46.3,65.3z"/>
</g>
<g>
	<path class="st0" d="M54.8,65.3c-0.6,0-1-0.4-1-1V49.1c0-0.6,0.4-1,1-1s1,0.4,1,1v15.2C55.8,64.9,55.4,65.3,54.8,65.3z"/>
</g>
<g>
	<path class="st0" d="M63.3,65.3c-0.6,0-1-0.4-1-1V39.1c0-0.6,0.4-1,1-1s1,0.4,1,1v25.2C64.3,64.9,63.9,65.3,63.3,65.3z"/>
</g>
</svg>
