<?xml version="1.0" encoding="utf-8"?>
<!-- Generator: Adobe Illustrator 22.0.1, SVG Export Plug-In . SVG Version: 6.00 Build 0)  -->
<svg version="1.1" id="隔离模式" xmlns="http://www.w3.org/2000/svg" xmlns:xlink="http://www.w3.org/1999/xlink" x="0px"
	 y="0px" viewBox="0 0 404 355.3" style="enable-background:new 0 0 404 355.3;" xml:space="preserve">
<style type="text/css">
	.st0{fill:#5078FE;}
</style>
<path class="st0" d="M357.5,7.9c-1.9,0-3.8,0.4-5.7,1.2L40.9,147.5c-5.7,2.6-9,8.6-8.2,14.7c0.9,6.2,5.8,11,11.8,11.9l141.1,19.8
	l19.8,141.4c0.9,6.2,5.8,11,11.8,11.9c0.6,0.1,1.3,0.2,1.9,0.2c5.5,0,10.5-3.3,12.7-8.3L370.2,27.6c2.3-5.3,1.2-11.5-2.9-15.5
	C364.7,9.5,361.2,7.9,357.5,7.9L357.5,7.9z M330.1,49.4L226.5,283L212,179.5c-0.9-6.2-5.8-11-11.8-11.9L96.9,153.1L330.1,49.4z"/>
</svg>
