<?xml version="1.0" encoding="utf-8"?>
<!-- Generator: Adobe Illustrator 22.0.1, SVG Export Plug-In . SVG Version: 6.00 Build 0)  -->
<svg version="1.1" id="图层_2_1_" xmlns="http://www.w3.org/2000/svg" xmlns:xlink="http://www.w3.org/1999/xlink" x="0px"
	 y="0px" viewBox="0 0 70 70" style="enable-background:new 0 0 70 70;" xml:space="preserve">
<style type="text/css">
	.st0{fill:#5078FE;}
</style>
<g>
	<g>
		<g>
			<path class="st0" d="M42.6,47.5l-2-0.3c0.1-0.5,0.1-1,0.1-1.5c0-0.8,0-1.4-0.1-2.2l2-0.3c0.1,0.9,0.1,1.6,0.1,2.4
				C42.7,46.2,42.7,46.8,42.6,47.5z"/>
		</g>
		<g>
			<path class="st0" d="M23.1,65.4c-2.5,0-4.9-0.5-7.2-1.4l0.7-1.9c2,0.8,4.2,1.2,6.4,1.2c0.2,0,0.5,0,0.7,0l0.1,2
				C23.6,65.4,23.4,65.4,23.1,65.4z M27.9,64.8l-0.5-1.9c2.4-0.6,4.6-1.7,6.5-3.2l1.2,1.6C33,62.9,30.6,64.1,27.9,64.8z M12.3,62.2
				c-2.3-1.5-4.2-3.4-5.7-5.7l1.7-1.1c1.3,2.1,3.1,3.8,5.1,5.1L12.3,62.2z M38.1,58.5l-1.5-1.3c1.6-1.9,2.8-4,3.5-6.4l1.9,0.6
				C41.2,54,39.9,56.4,38.1,58.5z M4.8,52.9c-0.9-2.3-1.4-4.8-1.4-7.3c0-0.2,0-0.5,0-0.7l2,0.1c0,0.2,0,0.4,0,0.6
				c0,2.3,0.4,4.5,1.2,6.5L4.8,52.9z M5.9,41.4L4,40.9c0.6-2.7,1.8-5.1,3.5-7.3L9,34.8C7.5,36.8,6.5,39,5.9,41.4z M11.5,32.2
				l-1.3-1.5c2.1-1.8,4.4-3.1,7-3.9l0.6,1.9C15.5,29.4,13.4,30.6,11.5,32.2z"/>
		</g>
		<g>
			<path class="st0" d="M25.4,28c-0.4,0-0.8,0-1.3-0.1c-0.6,0-1.2-0.1-1.8,0C22,28,21.7,28,21.4,28v-2c0.2,0,0.5,0,0.7,0
				c0.8-0.1,1.5,0,2.2,0c0.4,0,0.8,0,1.1,0V28z"/>
		</g>
	</g>
</g>
<g>
	<path class="st0" d="M43.7,44.1C32.8,44.1,24,35.3,24,24.4S32.8,4.7,43.7,4.7c10.9,0,19.7,8.8,19.7,19.7c0,0.6-0.4,1-1,1
		s-1-0.4-1-1c0-9.8-7.9-17.7-17.7-17.7S26,14.6,26,24.4s7.9,17.7,17.7,17.7c0.6,0,1,0.4,1,1S44.3,44.1,43.7,44.1z"/>
</g>
<g>
	<path class="st0" d="M52,49.1c-0.5,0-1-0.3-1.2-0.8L42,25.7L41.8,25l1.1-1.2l0.9,0.2l24.9,8.9l0.1,1c0,0.5-0.3,1-0.9,1.2L57.2,39
		L53,49L52,49.1z M44.9,26.8l7.2,18.4l3.4-8L56,37l8.6-3.1L44.9,26.8z"/>
</g>
</svg>
