<?xml version="1.0" encoding="utf-8"?>
<!-- Generator: Adobe Illustrator 22.0.1, SVG Export Plug-In . SVG Version: 6.00 Build 0)  -->
<svg version="1.1" id="图层_3" xmlns="http://www.w3.org/2000/svg" xmlns:xlink="http://www.w3.org/1999/xlink" x="0px" y="0px"
	 viewBox="0 0 70 70" style="enable-background:new 0 0 70 70;" xml:space="preserve">
<style type="text/css">
	.st0{fill:#5078FE;}
</style>
<g>
	<g>
		<path class="st0" d="M46.3,13.7l7.7,0.4l0.5,7.7c0,0.2,0.1,0.4,0.3,0.6c0.4,0.4,1,0.4,1.3,0c0.2-0.2,0.3-0.5,0.3-0.7l-0.6-8.5
			c0-0.2-0.1-0.4-0.3-0.6c-0.2-0.2-0.4-0.3-0.6-0.3l-8.6-0.5c-0.2,0-0.5,0.1-0.7,0.3c-0.4,0.4-0.4,1,0,1.3
			C45.8,13.6,46,13.7,46.3,13.7L46.3,13.7z M46.3,13.7"/>
		<path class="st0" d="M51.7,26.3l-0.6-8.5c0-0.2-0.1-0.4-0.3-0.6c-0.2-0.2-0.4-0.3-0.6-0.3l-8.6-0.5c-0.3,0-0.5,0.1-0.7,0.3
			c-0.4,0.4-0.4,1,0,1.3c0.2,0.2,0.4,0.3,0.6,0.3l7.7,0.4l0.5,7.7c0,0.2,0.1,0.4,0.3,0.6c0.4,0.4,1,0.4,1.3,0
			C51.6,26.9,51.7,26.6,51.7,26.3L51.7,26.3z M51.7,26.3"/>
	</g>
</g>
<g>
	<g>
		<path class="st0" d="M66.7,46.7L59.3,53c-0.9,0.7-2,0.9-3.2,0.4c0,0-0.1,0-0.1-0.1l-7-4.3c-0.8-0.3-1.4-0.9-1.7-1.6
			c-0.4-0.8-0.4-1.7-0.1-2.5c0.2-0.5,0.5-1,1-1.4c0.7-0.6,1.5-0.8,2.3-0.8l-4.5-5.4c-1.2-1.4-1-3.5,0.4-4.7c1.4-1.2,3.6-1,4.8,0.4
			l3.7,4.4c4.7-3.3,4.8-3.4,4.8-3.4c1.6-0.9,3.3-0.7,4.3,0.5c0.1,0.1,0.2,0.3,4.3,7.8C68.9,44,68.6,45.2,66.7,46.7L66.7,46.7z
			 M56.8,51.8c0.3,0.1,0.8,0.2,1.3-0.2l7.5-6.3c1.5-1.2,1.3-1.5,1-2.3c-1.4-2.6-3.7-6.9-4.1-7.4c-0.5-0.6-1.4-0.4-2,0
			c-0.1,0.1-3.3,2.3-5.4,3.8c-0.4,0.3-0.9,0.2-1.2-0.2l-4.2-5c-0.6-0.7-1.6-0.7-2.2-0.2c-0.7,0.6-0.8,1.6-0.2,2.2l7.2,8.6
			c0.3,0.3,0.3,0.8,0,1.1c-0.3,0.3-0.7,0.4-1.1,0.2l-2.7-1.6c-0.7-0.2-1.6,0.2-1.8,0.9c-0.1,0.4-0.1,0.8,0,1.1
			c0.2,0.3,0.5,0.6,0.8,0.7c0.1,0,0.1,0,0.2,0.1L56.8,51.8z M56.8,51.8"/>
	</g>
</g>
<g>
	<g>
		<path class="st0" d="M4.3,51.6c0,4.7,8.6,8,19.2,8s19.2-3.3,19.2-8h-1.9c0,3.1-7.7,6.1-17.3,6.1s-17.3-3-17.3-6.1H4.3z M23.5,36.6
			c-10.6,0-19.2-3.3-19.2-8s8.6-8,19.2-8s19.2,3.3,19.2,8S34,36.6,23.5,36.6L23.5,36.6z M23.5,34.7c9.6,0,17.3-3,17.3-6.1
			c0-3.1-7.7-6.1-17.3-6.1s-17.3,3-17.3,6.1C6.2,31.7,13.9,34.7,23.5,34.7L23.5,34.7z M4.3,39.5c0,4.7,8.6,8,19.2,8s19.2-3.3,19.2-8
			h-1.9c0,3.1-7.7,6.1-17.3,6.1s-17.3-3-17.3-6.1H4.3z M4.3,39.5"/>
		<path class="st0" d="M4.3,28.6v23h1.9v-23H4.3z M40.8,28.6v23h1.9v-23H40.8z M40.8,28.6"/>
	</g>
</g>
</svg>
